<svg width="24" height="24" viewBox="0 0 24 24" fill="none" xmlns="http://www.w3.org/2000/svg">
<g clip-path="url(#clip0_11_1411)">
<circle cx="12" cy="12" r="12" fill="currentColor"/>
<path d="M12.0323 17.1393C11.3297 17.1393 10.7032 17.01 10.153 16.7515C9.60617 16.493 9.17198 16.1367 8.85049 15.6826C8.52899 15.2285 8.36162 14.7082 8.34836 14.1215H10.4364C10.4596 14.5159 10.6253 14.8358 10.9336 15.081C11.2418 15.3263 11.6081 15.4489 12.0323 15.4489C12.3704 15.4489 12.6687 15.3743 12.9272 15.2252C13.189 15.0727 13.3929 14.8623 13.5387 14.5938C13.6878 14.322 13.7624 14.0105 13.7624 13.6591C13.7624 13.3012 13.6862 12.9863 13.5337 12.7145C13.3846 12.4428 13.1774 12.2306 12.9123 12.0782C12.6471 11.9257 12.3439 11.8478 12.0025 11.8445C11.7042 11.8445 11.4142 11.9058 11.1324 12.0285C10.854 12.1511 10.6369 12.3185 10.4812 12.5306L8.56711 12.1876L9.04935 6.81824H15.2738V8.57818H10.8242L10.5607 11.1286H10.6204C10.7994 10.8767 11.0695 10.6679 11.4307 10.5022C11.792 10.3365 12.1964 10.2536 12.6438 10.2536C13.257 10.2536 13.8039 10.3978 14.2844 10.6861C14.765 10.9745 15.1445 11.3706 15.4229 11.8743C15.7013 12.3748 15.8389 12.9515 15.8356 13.6045C15.8389 14.2905 15.6798 14.9004 15.3583 15.434C15.0401 15.9643 14.5943 16.3819 14.0209 16.6868C13.4509 16.9885 12.788 17.1393 12.0323 17.1393Z" fill="white"/>
</g>
<defs>
<clipPath id="clip0_11_1411">
<rect width="24" height="24" fill="white"/>
</clipPath>
</defs>
</svg>
