<svg width="24" height="24" viewBox="0 0 24 24" fill="none" xmlns="http://www.w3.org/2000/svg">
<path fill-rule="evenodd" clip-rule="evenodd" d="M12 1.00208C11.4742 1.00208 10.9577 1.14026 10.5022 1.40276L7.30635 3.22894C7.09621 3.27051 6.90019 3.37905 6.7526 3.54537L3.50388 5.40178L3.50001 5.404C3.13001 5.61762 2.81091 5.90721 2.56305 6.25244C2.50272 6.3128 2.44918 6.38193 2.40443 6.4593C2.36588 6.52594 2.33588 6.59518 2.31408 6.66574C2.10836 7.07923 2.00049 7.53547 2.00001 7.999L2.00001 11.9809C1.99979 11.993 1.99979 12.0052 2.00001 12.0173L2.00001 16.0011C2.00055 16.5271 2.13943 17.0438 2.40271 17.4993C2.66598 17.9548 3.04441 18.333 3.50001 18.5961L3.50388 18.5983L6.75309 20.455C6.89549 20.6148 7.08844 20.7286 7.30685 20.7714L10.5 22.5961L10.5019 22.5971C10.8191 22.78 11.1659 22.9025 11.5248 22.9601C11.6661 23.0366 11.828 23.08 12 23.08C12.172 23.08 12.3339 23.0366 12.4753 22.9601C12.8342 22.9025 13.181 22.7799 13.4982 22.5971L13.5 22.5961L16.6932 20.7714C16.9116 20.7286 17.1045 20.6148 17.2469 20.455L20.4962 18.5983L20.5 18.5961C20.9556 18.333 21.334 17.9548 21.5973 17.4993C21.8606 17.0438 21.9995 16.5271 22 16.0011V12.0174C22.0002 12.0052 22.0002 11.993 22 11.9808V7.999C21.9995 7.53554 21.8917 7.07938 21.686 6.66594C21.6642 6.5953 21.6342 6.526 21.5956 6.4593C21.5508 6.38187 21.4973 6.31269 21.4369 6.25231C21.189 5.90713 20.87 5.61759 20.5 5.40399L17.2474 3.54538C17.0998 3.37905 16.9038 3.2705 16.6937 3.22894L13.5 1.404L13.4979 1.4028C13.0424 1.14027 12.5258 1.00208 12 1.00208ZM13 20.5783L15.5 19.1497V14.6C15.5 14.2429 15.6905 13.9128 15.9997 13.7342L20 11.4229V8.53757L13 12.5868V20.5783ZM11 12.5868L4.00001 8.53755V11.4229L8.00029 13.7342C8.30954 13.9128 8.50001 14.2429 8.50001 14.6V19.1497L11 20.5783V12.5868ZM12 10.8548L18.961 6.82807L16.4506 5.39351L12.5003 7.67589C12.1908 7.85473 11.8093 7.85473 11.4997 7.67589L7.54947 5.39351L5.03901 6.82805L12 10.8548ZM17.5 18.0069L19.5 16.864L19.5016 16.8631C19.6528 16.7754 19.7783 16.6497 19.8658 16.4984C19.9535 16.3466 19.9998 16.1744 20 15.999V13.7327L17.5 15.1772V18.0069ZM4.00001 15.9994V13.7327L6.50001 15.1772V18.0069L4.50001 16.864L4.49844 16.8631C4.34727 16.7754 4.2217 16.6497 4.13424 16.4984C4.04656 16.3467 4.00027 16.1746 4.00001 15.9994ZM14.4406 4.24498L12.5 3.13606C12.348 3.04829 12.1756 3.00208 12 3.00208C11.8245 3.00208 11.652 3.04828 11.5 3.13605L11.4962 3.13828L9.5594 4.24498L12 5.65511L14.4406 4.24498Z" fill="#333333"/>
</svg>
