<svg width="24" height="24" viewBox="0 0 24 24" fill="none" xmlns="http://www.w3.org/2000/svg">
<path fill-rule="evenodd" clip-rule="evenodd" d="M10.5132 5.36249C8.69377 3.54307 5.74391 3.54307 3.9245 5.36249C2.10508 7.1819 2.10508 10.1318 3.9245 11.9512L4.7042 12.7309C4.71695 12.7436 4.72931 12.7567 4.74129 12.77L12 20.0287L19.2584 12.7703C19.2704 12.7569 19.2829 12.7438 19.2958 12.7309L20.0755 11.9512C21.8949 10.1318 21.8949 7.1819 20.0755 5.36249C18.2561 3.54307 15.3062 3.54307 13.4868 5.36249L12.7071 6.14219C12.3166 6.53272 11.6834 6.53272 11.2929 6.14219L10.5132 5.36249ZM20.7484 14.1067C20.7364 14.1201 20.7239 14.1332 20.711 14.1461L12.7081 22.149C12.5205 22.3366 12.2661 22.442 12.0008 22.4419C12.0005 22.4419 12.0011 22.4419 12.0008 22.4419C12.0005 22.4419 11.9995 22.4419 11.9992 22.4419C11.7339 22.442 11.4795 22.3366 11.2919 22.149L3.28896 14.1461C3.27607 14.1332 3.26359 14.1201 3.25155 14.1067L2.51029 13.3654C-0.0901777 10.7649 -0.0901815 6.54874 2.51028 3.94827C5.11075 1.34781 9.32693 1.34781 11.9274 3.94827L12 4.02087L12.0726 3.94827C14.6731 1.34781 18.8892 1.34781 21.4897 3.94827C24.0902 6.54874 24.0902 10.7649 21.4897 13.3654L20.7484 14.1067Z" fill="currentColor"/>
</svg>
