<svg width="24" height="24" viewBox="0 0 24 24" fill="none" xmlns="http://www.w3.org/2000/svg">
<path fill-rule="evenodd" clip-rule="evenodd" d="M15.78 2.38782C14.9838 2.38782 14.2201 2.70412 13.6571 3.26715L4.46711 12.4571C3.5288 13.3955 3.00166 14.6681 3.00166 15.995C3.00166 17.322 3.5288 18.5946 4.46711 19.5329C5.40541 20.4712 6.67803 20.9984 8.005 20.9984C9.33197 20.9984 10.6046 20.4712 11.5429 19.5329L20.7329 10.3429C21.1234 9.95241 21.7566 9.95241 22.1471 10.3429C22.5376 10.7335 22.5376 11.3666 22.1471 11.7571L12.9571 20.9471C11.6437 22.2605 9.8624 22.9984 8.005 22.9984C6.1476 22.9984 4.36627 22.2605 3.05289 20.9471C1.73951 19.6338 1.00166 17.8524 1.00166 15.995C1.00166 14.1376 1.73951 12.3563 3.05289 11.0429L12.2429 1.85293C13.181 0.914836 14.4533 0.387817 15.78 0.387817C17.1067 0.387817 18.379 0.914836 19.3171 1.85293C20.2552 2.79103 20.7822 4.06337 20.7822 5.39004C20.7822 6.71671 20.2552 7.98905 19.3171 8.92715L10.1171 18.1171C9.55429 18.68 8.79095 18.9962 7.995 18.9962C7.19905 18.9962 6.43571 18.68 5.87289 18.1171C5.31008 17.5543 4.99389 16.791 4.99389 15.995C4.99389 15.1991 5.31008 14.4358 5.87289 13.8729L14.3633 5.39252C14.7541 5.00222 15.3872 5.0026 15.7775 5.39335C16.1678 5.78411 16.1674 6.41727 15.7767 6.80756L7.28711 15.2871C7.09962 15.4749 6.99389 15.7297 6.99389 15.995C6.99389 16.2606 7.09936 16.5152 7.28711 16.7029C7.47485 16.8907 7.72949 16.9962 7.995 16.9962C8.26051 16.9962 8.51515 16.8907 8.70289 16.7029L17.9029 7.51294C18.4657 6.94995 18.7822 6.1861 18.7822 5.39004C18.7822 4.5938 18.4659 3.83017 17.9029 3.26715C17.3399 2.70412 16.5762 2.38782 15.78 2.38782Z" fill="currentColor"/>
</svg>
