<svg width="24" height="24" viewBox="0 0 24 24" fill="none" xmlns="http://www.w3.org/2000/svg">
<g clip-path="url(#clip0_11_1332)">
<path fill-rule="evenodd" clip-rule="evenodd" d="M17.8098 2.15376C16.7207 1.88127 15.5743 1.94981 14.5255 2.35012C13.4767 2.75042 12.5761 3.46318 11.9456 4.39198C11.322 5.31058 10.9923 6.39668 10.9997 7.50634C9.7424 7.41184 8.51246 7.07184 7.3806 6.50214C5.95764 5.78591 4.7339 4.72889 3.81836 3.42521L3 3.99992L2.10557 3.55271C2.09762 3.56861 2.09013 3.58466 2.08308 3.60083L2.08013 3.60759L2.06856 3.63452C2.05909 3.65677 2.04621 3.68758 2.03044 3.72651C1.99891 3.80434 1.95577 3.91481 1.90528 4.05446C1.80442 4.33343 1.67358 4.7307 1.54748 5.21829C1.29648 6.18882 1.05771 7.54221 1.12603 9.04533C1.19455 10.5528 1.57342 12.2315 2.57706 13.8162C3.32942 15.0042 4.41158 16.1054 5.91473 17.0329C4.39637 17.7324 2.72656 18.0678 1.03974 18.0007C0.577024 17.9823 0.162198 18.284 0.0371489 18.7299C-0.0878996 19.1758 0.109546 19.6492 0.514357 19.8741C5.29087 22.5277 10.6509 22.5524 14.8448 20.3202C19.0631 18.075 22 13.5999 22 7.49992L22 7.49662C21.9995 7.33436 21.9917 7.1723 21.9769 7.01089C22.9425 5.93949 23.6291 4.64307 23.9716 3.23654L23 2.99992L22.4236 2.18276C21.7151 2.6825 20.9448 3.08651 20.1326 3.38503C19.4723 2.79448 18.6758 2.37045 17.8098 2.15376ZM3.12397 8.95452C3.07427 7.86116 3.22096 6.8449 3.40465 6.04353C4.29725 6.9524 5.33585 7.712 6.48141 8.2886C8.19898 9.15311 10.1037 9.57943 12.0259 9.52959C12.5679 9.51553 13 9.07211 13 8.52992V7.52992L12.9999 7.51652C12.9904 6.80369 13.2 6.10512 13.6004 5.5153C14.0008 4.92547 14.5726 4.47285 15.2387 4.21864C15.9047 3.96443 16.6327 3.9209 17.3243 4.09394C18.0159 4.26699 18.6376 4.64825 19.1054 5.18616C19.3636 5.48296 19.7717 5.60087 20.1483 5.48745C20.38 5.41771 20.6092 5.34098 20.8357 5.25743C20.6469 5.50409 20.4406 5.73823 20.2178 5.95792C19.9802 6.1923 19.8751 6.52981 19.9378 6.85767C19.9784 7.06993 19.9992 7.28549 20 7.50159C19.9995 12.9008 17.4365 16.6751 13.9052 18.5547C11.307 19.9376 8.13027 20.3233 4.9601 19.5156C6.2342 19.1487 7.45069 18.5814 8.56163 17.8273C8.86205 17.6234 9.02833 17.2726 8.99604 16.911C8.96374 16.5493 8.73794 16.2336 8.40614 16.0861C6.31604 15.1572 5.04029 13.9676 4.26669 12.7461C3.48908 11.5183 3.18045 10.197 3.12397 8.95452Z" fill="currentColor"/>
</g>
<defs>
<clipPath id="clip0_11_1332">
<rect width="24" height="24" fill="white"/>
</clipPath>
</defs>
</svg>
