<svg width="24" height="24" viewBox="0 0 24 24" fill="none" xmlns="http://www.w3.org/2000/svg">
<path fill-rule="evenodd" clip-rule="evenodd" d="M12.5571 1.16939C12.3979 1.06242 12.2062 1 12 1C11.7938 1 11.6022 1.06242 11.443 1.16939L1.474 7.64923C1.36943 7.71381 1.27525 7.79877 1.19778 7.903C1.18796 7.91619 1.17848 7.92962 1.16933 7.94326C1.05233 8.11769 0.99746 8.31624 1.00002 8.51225V15.4878C0.99746 15.6838 1.05233 15.8823 1.16933 16.0567C1.17848 16.0704 1.18796 16.0838 1.19778 16.097C1.27525 16.2012 1.36943 16.2862 1.47399 16.3508L11.443 22.8306C11.6022 22.9376 11.7938 23 12 23C12.2062 23 12.3979 22.9376 12.5571 22.8306L22.5261 16.3508C22.6276 16.2881 22.7192 16.2062 22.7954 16.1062C22.8036 16.0954 22.8115 16.0845 22.8193 16.0735L22.8325 16.0541C22.9483 15.8803 23.0026 15.6828 23 15.4878V8.51222C23.0026 8.31722 22.9483 8.11971 22.8325 7.94594L22.8193 7.92654C22.8115 7.91549 22.8036 7.90459 22.7954 7.89385C22.7192 7.7938 22.6275 7.71192 22.5261 7.64924L12.5571 1.16939ZM11 3.84269L3.78769 8.53071L7.00002 10.7793L11 7.97934V3.84269ZM13 7.97934V3.84269L20.2124 8.53071L17 10.7793L13 7.97934ZM18.7438 12L21 10.4207V13.5793L18.7438 12ZM12 9.72066L8.74382 12L12 14.2793L15.2562 12L12 9.72066ZM3.00002 10.4207L5.25623 12L3.00002 13.5793V10.4207ZM7.00002 13.2207L3.78769 15.4693L11 20.1573V16.0207L7.00002 13.2207ZM20.2124 15.4693L17 13.2207L13 16.0207V20.1573L20.2124 15.4693Z" fill="#333333"/>
</svg>
